<svg width="100" height="100" viewBox="0 0 100 100" xmlns="http://www.w3.org/2000/svg">
  <defs>
    <linearGradient id="brandGradient" x1="0%" y1="0%" x2="100%" y2="100%">
      <stop offset="0%" style="stop-color:#D4B996;stop-opacity:1" />
      <stop offset="100%" style="stop-color:#C5A572;stop-opacity:1" />
    </linearGradient>
    <linearGradient id="accentGradient" x1="0%" y1="0%" x2="100%" y2="100%">
      <stop offset="0%" style="stop-color:#B8956A;stop-opacity:1" />
      <stop offset="100%" style="stop-color:#A6835C;stop-opacity:1" />
    </linearGradient>
  </defs>
  
  <!-- Background Circle -->
  <circle cx="50" cy="50" r="48" fill="url(#brandGradient)" stroke="url(#accentGradient)" stroke-width="2"/>
  
  <!-- Letter "A" with financial chart styling -->
  <path d="M30 75 L40 45 L50 25 L60 45 L70 75" stroke="white" stroke-width="4" fill="none" stroke-linecap="round" stroke-linejoin="round"/>
  <path d="M35 60 L65 60" stroke="white" stroke-width="3" stroke-linecap="round"/>
  
  <!-- Financial chart elements -->
  <g transform="translate(25, 25)">
    <!-- Rising trend line -->
    <path d="M5 40 L15 35 L25 25 L35 20 L45 15" stroke="white" stroke-width="2" fill="none" stroke-linecap="round" opacity="0.8"/>
    <!-- Data points -->
    <circle cx="5" cy="40" r="2" fill="white" opacity="0.9"/>
    <circle cx="15" cy="35" r="2" fill="white" opacity="0.9"/>
    <circle cx="25" cy="25" r="2" fill="white" opacity="0.9"/>
    <circle cx="35" cy="20" r="2" fill="white" opacity="0.9"/>
    <circle cx="45" cy="15" r="2" fill="white" opacity="0.9"/>
  </g>
  
  <!-- Premium highlight -->
  <circle cx="50" cy="50" r="48" fill="none" stroke="rgba(255,255,255,0.3)" stroke-width="1"/>
  <circle cx="50" cy="50" r="35" fill="none" stroke="rgba(255,255,255,0.1)" stroke-width="1"/>
</svg> 